<?xml version="1.0" encoding="UTF-8"?>
<svg xmlns="http://www.w3.org/2000/svg" viewBox="603.71 336.71 714.67 397.72">
<path fill-rule="nonzero" fill="#068CEF" fill-opacity="1" d="M 918.785156 525.460938 L 918.785156 361.976562 C 918.785156 359.539062 916.148438 358.019531 914.039062 359.238281 L 875.101562 381.71875 C 874.121094 382.285156 873.519531 383.328125 873.519531 384.460938 L 873.519531 502.976562 C 873.519531 504.109375 874.121094 505.152344 875.101562 505.71875 L 914.039062 528.203125 C 916.148438 529.421875 918.785156 527.898438 918.785156 525.460938 "/>
<path fill-rule="nonzero" fill="#068CEF" fill-opacity="1" d="M 982.796875 435.605469 L 982.796875 384.460938 C 982.796875 383.328125 982.195312 382.285156 981.214844 381.71875 L 942.277344 359.234375 C 940.167969 358.019531 937.53125 359.539062 937.53125 361.976562 L 937.53125 458.085938 C 937.53125 460.523438 940.167969 462.046875 942.277344 460.828125 L 981.214844 438.34375 C 982.195312 437.777344 982.796875 436.734375 982.796875 435.605469 "/>
<path fill-rule="nonzero" fill="#068CEF" fill-opacity="1" d="M 937.53125 540.058594 L 937.53125 488.914062 C 937.53125 487.78125 938.132812 486.738281 939.113281 486.171875 L 978.050781 463.6875 C 980.160156 462.472656 982.796875 463.992188 982.796875 466.429688 L 982.796875 562.539062 C 982.796875 564.976562 980.160156 566.5 978.050781 565.28125 L 939.113281 542.796875 C 938.132812 542.230469 937.53125 541.1875 937.53125 540.058594 "/>
<path fill-rule="nonzero" fill="#068CEF" fill-opacity="1" d="M 1001.539062 399.058594 L 1001.539062 562.539062 C 1001.539062 564.976562 1004.175781 566.5 1006.285156 565.28125 L 1045.226562 542.796875 C 1046.203125 542.234375 1046.808594 541.1875 1046.808594 540.058594 L 1046.808594 421.539062 C 1046.808594 420.410156 1046.203125 419.363281 1045.226562 418.800781 L 1006.285156 396.316406 C 1004.175781 395.097656 1001.539062 396.621094 1001.539062 399.058594 "/>
<path fill-rule="nonzero" fill="#FFFFFF" fill-opacity="1" d="M 655.0625 632.6875 L 678.605469 632.6875 C 681.816406 632.6875 684.304688 631.824219 686.066406 630.09375 C 687.824219 628.363281 688.707031 625.984375 688.707031 622.957031 C 688.707031 620.917969 688.304688 619.1875 687.5 617.765625 C 686.699219 616.347656 685.570312 615.25 684.117188 614.476562 C 682.664062 613.703125 680.828125 613.316406 678.605469 613.316406 L 655.0625 613.316406 Z M 641.996094 665.960938 L 641.996094 602.289062 L 681.292969 602.289062 C 685.679688 602.289062 689.402344 603.152344 692.460938 604.882812 C 695.519531 606.613281 697.863281 609.023438 699.503906 612.113281 C 701.140625 615.203125 701.960938 618.816406 701.960938 622.957031 C 701.960938 627.035156 701.125 630.632812 699.457031 633.753906 C 697.789062 636.875 695.378906 639.3125 692.226562 641.074219 C 689.078125 642.835938 685.246094 643.71875 680.734375 643.71875 L 655.0625 643.71875 L 655.0625 665.960938 Z M 641.996094 665.960938 "/>
<path fill-rule="nonzero" fill="#FFFFFF" fill-opacity="1" d="M 710.949219 665.960938 L 710.949219 617.117188 L 720.867188 617.117188 L 721.792969 625.273438 L 722.441406 625.273438 C 723.121094 623.667969 724 622.152344 725.082031 620.730469 C 726.160156 619.3125 727.550781 618.167969 729.253906 617.300781 C 730.949219 616.4375 732.914062 616.003906 735.140625 616.003906 C 736.1875 616.003906 737.191406 616.097656 738.152344 616.28125 C 739.105469 616.46875 739.925781 616.683594 740.605469 616.933594 L 740.605469 627.867188 L 735.695312 627.867188 C 733.46875 627.867188 731.570312 628.207031 729.996094 628.886719 C 728.417969 629.566406 727.105469 630.539062 726.054688 631.808594 C 725.003906 633.074219 724.230469 634.542969 723.738281 636.210938 C 723.242188 637.878906 722.996094 639.730469 722.996094 641.769531 L 722.996094 665.960938 Z M 710.949219 665.960938 "/>
<path fill-rule="nonzero" fill="#FFFFFF" fill-opacity="1" d="M 748.019531 617.117188 L 760.066406 617.117188 L 760.066406 665.960938 L 748.019531 665.960938 Z M 748.019531 598.859375 L 760.066406 598.859375 L 760.066406 609.425781 L 748.019531 609.425781 Z M 748.019531 598.859375 "/>
<path fill-rule="nonzero" fill="#FFFFFF" fill-opacity="1" d="M 772.671875 665.960938 L 772.671875 617.117188 L 782.589844 617.117188 L 783.515625 624.53125 L 784.257812 624.53125 C 785.613281 622.617188 787.191406 621.023438 788.984375 619.757812 C 790.773438 618.492188 792.734375 617.550781 794.867188 616.933594 C 797 616.316406 799.179688 616.003906 801.402344 616.003906 C 805.109375 616.003906 808.273438 616.683594 810.902344 618.042969 C 813.527344 619.402344 815.488281 621.566406 816.785156 624.53125 L 817.527344 624.53125 C 818.949219 622.617188 820.585938 621.023438 822.441406 619.757812 C 824.296875 618.492188 826.300781 617.550781 828.464844 616.933594 C 830.628906 616.316406 832.851562 616.003906 835.136719 616.003906 C 838.78125 616.003906 841.886719 616.621094 844.453125 617.859375 C 847.015625 619.097656 848.992188 621.042969 850.386719 623.699219 C 851.773438 626.355469 852.46875 629.816406 852.46875 634.078125 L 852.46875 665.960938 L 840.421875 665.960938 L 840.421875 636.394531 C 840.421875 634.480469 840.191406 632.871094 839.726562 631.574219 C 839.261719 630.277344 838.613281 629.257812 837.777344 628.519531 C 836.945312 627.777344 835.941406 627.234375 834.765625 626.894531 C 833.59375 626.554688 832.296875 626.386719 830.875 626.386719 C 828.648438 626.386719 826.609375 626.910156 824.757812 627.960938 C 822.902344 629.011719 821.421875 630.464844 820.308594 632.316406 C 819.195312 634.171875 818.640625 636.335938 818.640625 638.804688 L 818.640625 665.960938 L 806.59375 665.960938 L 806.59375 636.394531 C 806.59375 634.480469 806.359375 632.871094 805.898438 631.574219 C 805.433594 630.277344 804.785156 629.257812 803.953125 628.519531 C 803.117188 627.777344 802.113281 627.234375 800.941406 626.894531 C 799.765625 626.554688 798.4375 626.386719 796.953125 626.386719 C 794.789062 626.386719 792.765625 626.910156 790.882812 627.960938 C 788.996094 629.011719 787.5 630.464844 786.386719 632.316406 C 785.277344 634.171875 784.71875 636.335938 784.71875 638.804688 L 784.71875 665.960938 Z M 772.671875 665.960938 "/>
<path fill-rule="nonzero" fill="#FFFFFF" fill-opacity="1" d="M 875.175781 636.300781 L 902.144531 636.300781 C 902.144531 634.386719 901.820312 632.75 901.171875 631.390625 C 900.523438 630.03125 899.613281 628.902344 898.4375 628.007812 C 897.265625 627.113281 895.902344 626.464844 894.363281 626.0625 C 892.816406 625.660156 891.148438 625.457031 889.355469 625.457031 C 886.574219 625.457031 884.164062 625.863281 882.128906 626.664062 C 880.089844 627.46875 878.496094 628.671875 877.355469 630.277344 C 876.210938 631.886719 875.484375 633.894531 875.175781 636.300781 M 889.449219 667.070312 C 883.703125 667.070312 878.835938 666.160156 874.851562 664.339844 C 870.867188 662.515625 867.820312 659.71875 865.722656 655.949219 C 863.621094 652.183594 862.570312 647.394531 862.570312 641.585938 C 862.570312 635.777344 863.605469 630.988281 865.675781 627.21875 C 867.746094 623.449219 870.773438 620.640625 874.757812 618.785156 C 878.742188 616.933594 883.578125 616.003906 889.261719 616.003906 C 894.824219 616.003906 899.503906 616.917969 903.304688 618.738281 C 907.105469 620.5625 909.960938 623.296875 911.878906 626.941406 C 913.792969 630.589844 914.75 635.160156 914.75 640.660156 L 914.75 644.550781 L 875.082031 644.550781 C 875.207031 647.578125 875.839844 650.066406 876.984375 652.011719 C 878.125 653.957031 879.765625 655.378906 881.894531 656.273438 C 884.027344 657.171875 886.636719 657.617188 889.726562 657.617188 C 891.085938 657.617188 892.507812 657.449219 893.988281 657.109375 C 895.472656 656.769531 896.832031 656.261719 898.066406 655.578125 C 899.304688 654.898438 900.339844 654.003906 901.171875 652.890625 C 902.007812 651.78125 902.453125 650.480469 902.515625 649 L 914.566406 649 C 914.566406 651.78125 913.976562 654.28125 912.804688 656.507812 C 911.628906 658.730469 909.945312 660.628906 907.753906 662.207031 C 905.558594 663.78125 902.917969 664.988281 899.828125 665.820312 C 896.738281 666.652344 893.277344 667.070312 889.449219 667.070312 "/>
<path fill-rule="nonzero" fill="#FFFFFF" fill-opacity="1" d="M 983.148438 667.070312 C 975.609375 667.070312 969.246094 665.867188 964.058594 663.457031 C 958.867188 661.046875 954.929688 657.402344 952.238281 652.519531 C 949.550781 647.640625 948.207031 641.492188 948.207031 634.078125 C 948.207031 623.265625 951.234375 615.078125 957.289062 609.515625 C 963.347656 603.957031 971.964844 601.175781 983.148438 601.175781 C 989.324219 601.175781 994.839844 602.132812 999.691406 604.050781 C 1004.542969 605.964844 1008.359375 608.792969 1011.136719 612.527344 C 1013.917969 616.269531 1015.308594 620.886719 1015.308594 626.386719 L 1002.242188 626.386719 C 1002.242188 623.296875 1001.4375 620.699219 999.832031 618.597656 C 998.222656 616.5 995.984375 614.90625 993.113281 613.828125 C 990.238281 612.746094 986.886719 612.203125 983.054688 612.203125 C 978.480469 612.203125 974.605469 613.007812 971.425781 614.613281 C 968.242188 616.222656 965.816406 618.570312 964.148438 621.65625 C 962.480469 624.746094 961.644531 628.515625 961.644531 632.964844 L 961.644531 635.191406 C 961.644531 639.699219 962.480469 643.515625 964.148438 646.636719 C 965.816406 649.757812 968.242188 652.101562 971.425781 653.679688 C 974.605469 655.253906 978.515625 656.042969 983.148438 656.042969 C 987.101562 656.042969 990.546875 655.519531 993.480469 654.46875 C 996.414062 653.417969 998.6875 651.839844 1000.296875 649.738281 C 1001.898438 647.640625 1002.703125 645.074219 1002.703125 642.046875 L 1015.402344 642.046875 C 1015.402344 647.484375 1014.027344 652.058594 1011.277344 655.765625 C 1008.527344 659.472656 1004.726562 662.28125 999.878906 664.199219 C 995.027344 666.113281 989.449219 667.070312 983.148438 667.070312 "/>
<path fill-rule="nonzero" fill="#FFFFFF" fill-opacity="1" d="M 1045.429688 657.433594 C 1047.34375 657.433594 1049.230469 657.1875 1051.082031 656.691406 C 1052.9375 656.199219 1054.605469 655.503906 1056.089844 654.605469 C 1057.570312 653.710938 1058.757812 652.585938 1059.65625 651.222656 C 1060.550781 649.867188 1061 648.351562 1061 646.683594 L 1061 644.363281 C 1055.871094 644.363281 1051.453125 644.582031 1047.746094 645.015625 C 1044.039062 645.449219 1041.195312 646.234375 1039.21875 647.378906 C 1037.242188 648.519531 1036.253906 650.144531 1036.253906 652.242188 C 1036.253906 653.480469 1036.65625 654.484375 1037.460938 655.253906 C 1038.261719 656.027344 1039.359375 656.585938 1040.75 656.925781 C 1042.140625 657.265625 1043.699219 657.433594 1045.429688 657.433594 M 1042.09375 667.070312 C 1039.992188 667.070312 1037.875 666.871094 1035.746094 666.46875 C 1033.613281 666.066406 1031.667969 665.355469 1029.90625 664.339844 C 1028.144531 663.316406 1026.738281 661.898438 1025.6875 660.074219 C 1024.636719 658.253906 1024.113281 655.890625 1024.113281 652.984375 C 1024.113281 649.339844 1025.023438 646.421875 1026.847656 644.226562 C 1028.667969 642.035156 1031.234375 640.367188 1034.539062 639.222656 C 1037.84375 638.078125 1041.753906 637.320312 1046.261719 636.949219 C 1050.773438 636.582031 1055.683594 636.394531 1061 636.394531 L 1061 633.335938 C 1061 631.605469 1060.644531 630.15625 1059.933594 628.980469 C 1059.222656 627.808594 1058.046875 626.929688 1056.410156 626.339844 C 1054.773438 625.753906 1052.503906 625.460938 1049.597656 625.460938 C 1047.066406 625.460938 1044.949219 625.691406 1043.25 626.152344 C 1041.550781 626.617188 1040.285156 627.234375 1039.449219 628.007812 C 1038.617188 628.78125 1038.199219 629.660156 1038.199219 630.648438 L 1038.199219 631.855469 L 1026.335938 631.855469 C 1026.273438 631.546875 1026.242188 631.25 1026.242188 630.972656 L 1026.242188 630 C 1026.242188 627.160156 1027.1875 624.6875 1029.070312 622.585938 C 1030.957031 620.484375 1033.675781 618.863281 1037.226562 617.71875 C 1040.777344 616.578125 1045.058594 616.003906 1050.0625 616.003906 C 1055.191406 616.003906 1059.453125 616.578125 1062.855469 617.71875 C 1066.25 618.863281 1068.800781 620.609375 1070.5 622.957031 C 1072.199219 625.304688 1073.050781 628.332031 1073.050781 632.039062 L 1073.050781 654.003906 C 1073.050781 655.179688 1073.339844 656.042969 1073.929688 656.601562 C 1074.515625 657.15625 1075.304688 657.433594 1076.292969 657.433594 L 1080.09375 657.433594 L 1080.09375 665.496094 C 1079.472656 665.742188 1078.46875 666.054688 1077.078125 666.421875 C 1075.6875 666.796875 1074.066406 666.980469 1072.214844 666.980469 C 1070.050781 666.980469 1068.273438 666.683594 1066.886719 666.097656 C 1065.492188 665.511719 1064.414062 664.679688 1063.640625 663.597656 C 1062.867188 662.515625 1062.328125 661.265625 1062.019531 659.84375 L 1061.371094 659.84375 C 1060.011719 661.324219 1058.359375 662.609375 1056.410156 663.691406 C 1054.464844 664.769531 1052.300781 665.605469 1049.925781 666.191406 C 1047.546875 666.777344 1044.933594 667.070312 1042.09375 667.070312 "/>
<path fill-rule="nonzero" fill="#FFFFFF" fill-opacity="1" d="M 1111.96875 656.785156 C 1114.9375 656.785156 1117.390625 656.242188 1119.339844 655.164062 C 1121.285156 654.082031 1122.734375 652.460938 1123.695312 650.296875 C 1124.652344 648.136719 1125.128906 645.449219 1125.128906 642.234375 L 1125.128906 640.9375 C 1125.128906 637.660156 1124.652344 634.945312 1123.695312 632.78125 C 1122.734375 630.617188 1121.269531 628.996094 1119.292969 627.914062 C 1117.3125 626.835938 1114.84375 626.292969 1111.878906 626.292969 C 1109.035156 626.292969 1106.625 626.863281 1104.648438 628.007812 C 1102.671875 629.152344 1101.1875 630.820312 1100.199219 633.011719 C 1099.210938 635.207031 1098.71875 637.878906 1098.71875 641.027344 L 1098.71875 641.957031 C 1098.71875 644.304688 1098.992188 646.402344 1099.550781 648.257812 C 1100.105469 650.113281 1100.957031 651.671875 1102.097656 652.9375 C 1103.242188 654.203125 1104.632812 655.164062 1106.269531 655.8125 C 1107.90625 656.460938 1109.804688 656.785156 1111.96875 656.785156 M 1086.667969 682.640625 L 1086.667969 617.117188 L 1096.492188 617.117188 L 1097.511719 624.253906 L 1098.253906 624.253906 C 1100.167969 621.351562 1102.59375 619.246094 1105.527344 617.949219 C 1108.464844 616.652344 1111.722656 616.003906 1115.304688 616.003906 C 1119.816406 616.003906 1123.722656 616.917969 1127.03125 618.738281 C 1130.335938 620.5625 1132.898438 623.359375 1134.722656 627.128906 C 1136.546875 630.894531 1137.457031 635.714844 1137.457031 641.585938 C 1137.457031 647.332031 1136.546875 652.105469 1134.722656 655.902344 C 1132.898438 659.703125 1130.382812 662.515625 1127.167969 664.339844 C 1123.957031 666.160156 1120.25 667.070312 1116.046875 667.070312 C 1113.640625 667.070312 1111.382812 666.808594 1109.28125 666.285156 C 1107.179688 665.761719 1105.296875 664.972656 1103.628906 663.921875 C 1101.960938 662.871094 1100.539062 661.574219 1099.367188 660.027344 L 1098.71875 660.027344 L 1098.71875 682.640625 Z M 1086.667969 682.640625 "/>
<path fill-rule="nonzero" fill="#FFFFFF" fill-opacity="1" d="M 1147.929688 617.117188 L 1159.976562 617.117188 L 1159.976562 665.960938 L 1147.929688 665.960938 Z M 1147.929688 598.859375 L 1159.976562 598.859375 L 1159.976562 609.425781 L 1147.929688 609.425781 Z M 1147.929688 598.859375 "/>
<path fill-rule="nonzero" fill="#FFFFFF" fill-opacity="1" d="M 1189.078125 667.070312 C 1185.742188 667.070312 1183.085938 666.515625 1181.109375 665.402344 C 1179.132812 664.289062 1177.710938 662.683594 1176.847656 660.585938 C 1175.980469 658.484375 1175.550781 655.949219 1175.550781 652.984375 L 1175.550781 626.753906 L 1167.949219 626.753906 L 1167.949219 617.117188 L 1175.921875 617.117188 L 1178.234375 603.214844 L 1187.597656 603.214844 L 1187.597656 617.117188 L 1198.441406 617.117188 L 1198.441406 626.753906 L 1187.597656 626.753906 L 1187.597656 651.964844 C 1187.597656 653.757812 1187.980469 655.117188 1188.757812 656.042969 C 1189.527344 656.96875 1190.964844 657.433594 1193.066406 657.433594 L 1198.441406 657.433594 L 1198.441406 665.496094 C 1197.699219 665.804688 1196.773438 666.066406 1195.660156 666.285156 C 1194.546875 666.5 1193.40625 666.683594 1192.230469 666.839844 C 1191.058594 666.992188 1190.007812 667.070312 1189.078125 667.070312 "/>
<path fill-rule="nonzero" fill="#FFFFFF" fill-opacity="1" d="M 1226.800781 657.433594 C 1228.714844 657.433594 1230.597656 657.1875 1232.453125 656.691406 C 1234.304688 656.199219 1235.976562 655.503906 1237.457031 654.605469 C 1238.941406 653.710938 1240.128906 652.585938 1241.027344 651.222656 C 1241.921875 649.867188 1242.371094 648.351562 1242.371094 646.683594 L 1242.371094 644.363281 C 1237.238281 644.363281 1232.824219 644.582031 1229.117188 645.015625 C 1225.410156 645.449219 1222.566406 646.234375 1220.589844 647.378906 C 1218.613281 648.519531 1217.625 650.144531 1217.625 652.242188 C 1217.625 653.480469 1218.027344 654.484375 1218.828125 655.253906 C 1219.632812 656.027344 1220.730469 656.585938 1222.117188 656.925781 C 1223.507812 657.265625 1225.070312 657.433594 1226.800781 657.433594 M 1223.464844 667.070312 C 1221.363281 667.070312 1219.246094 666.871094 1217.113281 666.46875 C 1214.984375 666.066406 1213.035156 665.355469 1211.273438 664.339844 C 1209.515625 663.316406 1208.109375 661.898438 1207.058594 660.074219 C 1206.007812 658.253906 1205.484375 655.890625 1205.484375 652.984375 C 1205.484375 649.339844 1206.394531 646.421875 1208.21875 644.226562 C 1210.039062 642.035156 1212.601562 640.367188 1215.910156 639.222656 C 1219.214844 638.078125 1223.121094 637.320312 1227.632812 636.949219 C 1232.144531 636.582031 1237.054688 636.394531 1242.371094 636.394531 L 1242.371094 633.335938 C 1242.371094 631.605469 1242.015625 630.15625 1241.304688 628.980469 C 1240.59375 627.808594 1239.417969 626.929688 1237.78125 626.339844 C 1236.144531 625.753906 1233.871094 625.460938 1230.96875 625.460938 C 1228.4375 625.460938 1226.320312 625.691406 1224.621094 626.152344 C 1222.921875 626.617188 1221.65625 627.234375 1220.820312 628.007812 C 1219.988281 628.78125 1219.570312 629.660156 1219.570312 630.648438 L 1219.570312 631.855469 L 1207.707031 631.855469 C 1207.644531 631.546875 1207.613281 631.25 1207.613281 630.972656 L 1207.613281 630 C 1207.613281 627.160156 1208.554688 624.6875 1210.441406 622.585938 C 1212.324219 620.484375 1215.042969 618.863281 1218.597656 617.71875 C 1222.148438 616.578125 1226.429688 616.003906 1231.433594 616.003906 C 1236.5625 616.003906 1240.824219 616.578125 1244.222656 617.71875 C 1247.621094 618.863281 1250.167969 620.609375 1251.871094 622.957031 C 1253.566406 625.304688 1254.417969 628.332031 1254.417969 632.039062 L 1254.417969 654.003906 C 1254.417969 655.179688 1254.710938 656.042969 1255.300781 656.601562 C 1255.886719 657.15625 1256.671875 657.433594 1257.660156 657.433594 L 1261.460938 657.433594 L 1261.460938 665.496094 C 1260.84375 665.742188 1259.839844 666.054688 1258.449219 666.421875 C 1257.058594 666.796875 1255.4375 666.980469 1253.585938 666.980469 C 1251.421875 666.980469 1249.644531 666.683594 1248.253906 666.097656 C 1246.863281 665.511719 1245.78125 664.679688 1245.011719 663.597656 C 1244.238281 662.515625 1243.699219 661.265625 1243.390625 659.84375 L 1242.742188 659.84375 C 1241.382812 661.324219 1239.730469 662.609375 1237.78125 663.691406 C 1235.835938 664.769531 1233.671875 665.605469 1231.292969 666.191406 C 1228.914062 666.777344 1226.304688 667.070312 1223.464844 667.070312 "/>
<path fill-rule="nonzero" fill="#FFFFFF" fill-opacity="1" d="M 1268.050781 598.859375 L 1280.097656 598.859375 L 1280.097656 665.960938 L 1268.050781 665.960938 Z M 1268.050781 598.859375 "/>
<path fill-rule="nonzero" fill="#068CEF" fill-opacity="1" d="M 738.425781 708.175781 C 737.113281 708.175781 735.871094 708.070312 734.699219 707.863281 C 733.527344 707.65625 732.484375 707.308594 731.582031 706.820312 C 730.679688 706.332031 729.964844 705.679688 729.449219 704.867188 C 728.933594 704.050781 728.675781 703.027344 728.675781 701.792969 L 728.675781 701.539062 C 728.675781 701.449219 728.683594 701.378906 728.703125 701.316406 L 732.28125 701.316406 C 732.261719 701.394531 732.246094 701.492188 732.238281 701.601562 C 732.230469 701.710938 732.222656 701.835938 732.222656 701.972656 C 732.222656 702.667969 732.476562 703.253906 732.984375 703.730469 C 733.492188 704.210938 734.210938 704.566406 735.144531 704.804688 C 736.082031 705.046875 737.164062 705.164062 738.398438 705.164062 C 739.011719 705.164062 739.609375 705.136719 740.1875 705.074219 C 740.761719 705.015625 741.304688 704.914062 741.8125 704.777344 C 742.316406 704.636719 742.761719 704.453125 743.140625 704.222656 C 743.515625 703.996094 743.8125 703.722656 744.03125 703.40625 C 744.253906 703.085938 744.359375 702.71875 744.359375 702.300781 C 744.359375 701.683594 744.152344 701.183594 743.734375 700.796875 C 743.316406 700.40625 742.746094 700.089844 742.019531 699.839844 C 741.292969 699.59375 740.484375 699.375 739.589844 699.183594 C 738.695312 698.996094 737.765625 698.808594 736.800781 698.617188 C 735.835938 698.429688 734.90625 698.191406 734.011719 697.902344 C 733.117188 697.613281 732.308594 697.25 731.582031 696.8125 C 730.855469 696.375 730.285156 695.820312 729.867188 695.144531 C 729.449219 694.46875 729.242188 693.632812 729.242188 692.640625 C 729.242188 691.765625 729.441406 690.972656 729.835938 690.265625 C 730.234375 689.5625 730.824219 688.964844 731.613281 688.476562 C 732.398438 687.992188 733.359375 687.625 734.503906 687.375 C 735.648438 687.125 736.976562 687 738.484375 687 C 739.898438 687 741.15625 687.132812 742.257812 687.390625 C 743.363281 687.648438 744.292969 688.027344 745.046875 688.523438 C 745.804688 689.019531 746.375 689.628906 746.761719 690.34375 C 747.148438 691.058594 747.34375 691.875 747.34375 692.785156 L 747.34375 693.234375 L 743.824219 693.234375 L 743.824219 692.785156 C 743.824219 692.230469 743.605469 691.75 743.167969 691.339844 C 742.730469 690.933594 742.121094 690.609375 741.335938 690.371094 C 740.546875 690.132812 739.640625 690.011719 738.605469 690.011719 C 737.332031 690.011719 736.273438 690.113281 735.429688 690.3125 C 734.585938 690.511719 733.945312 690.792969 733.519531 691.160156 C 733.09375 691.53125 732.878906 691.972656 732.878906 692.488281 C 732.878906 693.023438 733.09375 693.46875 733.519531 693.816406 C 733.945312 694.164062 734.523438 694.453125 735.25 694.679688 C 735.976562 694.910156 736.785156 695.113281 737.683594 695.292969 C 738.574219 695.472656 739.5 695.660156 740.453125 695.859375 C 741.410156 696.058594 742.339844 696.300781 743.242188 696.589844 C 744.148438 696.878906 744.964844 697.246094 745.6875 697.691406 C 746.414062 698.140625 746.984375 698.703125 747.402344 699.378906 C 747.820312 700.054688 748.027344 700.878906 748.027344 701.855469 C 748.027344 703.363281 747.621094 704.585938 746.808594 705.523438 C 745.992188 706.457031 744.863281 707.132812 743.421875 707.550781 C 741.980469 707.96875 740.316406 708.175781 738.425781 708.175781 "/>
<path fill-rule="nonzero" fill="#068CEF" fill-opacity="1" d="M 760.4375 698.484375 L 769.890625 698.484375 C 769.890625 697.730469 769.769531 697.09375 769.53125 696.574219 C 769.292969 696.058594 768.964844 695.636719 768.550781 695.308594 C 768.132812 694.980469 767.648438 694.746094 767.101562 694.605469 C 766.554688 694.46875 765.964844 694.398438 765.328125 694.398438 C 764.375 694.398438 763.542969 694.542969 762.839844 694.828125 C 762.132812 695.117188 761.578125 695.566406 761.179688 696.171875 C 760.785156 696.777344 760.535156 697.550781 760.4375 698.484375 M 765.386719 708.175781 C 763.597656 708.175781 762.078125 707.882812 760.824219 707.296875 C 759.570312 706.710938 758.617188 705.808594 757.960938 704.597656 C 757.304688 703.386719 756.976562 701.84375 756.976562 699.972656 C 756.976562 698.125 757.300781 696.59375 757.945312 695.382812 C 758.59375 694.167969 759.542969 693.265625 760.796875 692.667969 C 762.046875 692.070312 763.566406 691.773438 765.359375 691.773438 C 767.128906 691.773438 768.601562 692.066406 769.785156 692.652344 C 770.96875 693.238281 771.859375 694.109375 772.453125 695.261719 C 773.050781 696.414062 773.351562 697.828125 773.351562 699.496094 L 773.351562 700.808594 L 760.4375 700.808594 C 760.457031 701.921875 760.671875 702.835938 761.078125 703.539062 C 761.484375 704.246094 762.054688 704.757812 762.792969 705.074219 C 763.527344 705.394531 764.421875 705.550781 765.476562 705.550781 C 766.054688 705.550781 766.609375 705.476562 767.148438 705.328125 C 767.683594 705.179688 768.15625 704.96875 768.5625 704.703125 C 768.96875 704.433594 769.300781 704.105469 769.546875 703.71875 C 769.796875 703.328125 769.941406 702.898438 769.980469 702.421875 L 773.261719 702.421875 C 773.242188 703.253906 773.054688 704.019531 772.707031 704.714844 C 772.359375 705.414062 771.851562 706.019531 771.1875 706.535156 C 770.519531 707.054688 769.699219 707.453125 768.726562 707.742188 C 767.753906 708.03125 766.640625 708.175781 765.386719 708.175781 "/>
<path fill-rule="nonzero" fill="#068CEF" fill-opacity="1" d="M 790.261719 708.175781 C 788.472656 708.175781 786.964844 707.878906 785.742188 707.28125 C 784.519531 706.683594 783.601562 705.773438 782.984375 704.554688 C 782.367188 703.328125 782.058594 701.804688 782.058594 699.972656 C 782.058594 698.125 782.371094 696.59375 782.996094 695.382812 C 783.625 694.167969 784.550781 693.265625 785.773438 692.667969 C 786.996094 692.070312 788.492188 691.773438 790.261719 691.773438 C 791.414062 691.773438 792.445312 691.902344 793.363281 692.160156 C 794.277344 692.421875 795.066406 692.816406 795.734375 693.355469 C 796.398438 693.890625 796.910156 694.550781 797.269531 695.339844 C 797.628906 696.121094 797.804688 697.03125 797.804688 698.066406 L 794.464844 698.066406 C 794.464844 697.230469 794.285156 696.546875 793.929688 696.007812 C 793.570312 695.472656 793.078125 695.070312 792.453125 694.800781 C 791.824219 694.53125 791.085938 694.398438 790.230469 694.398438 C 789.238281 694.398438 788.382812 694.585938 787.667969 694.964844 C 786.949219 695.34375 786.402344 695.917969 786.023438 696.695312 C 785.648438 697.46875 785.457031 698.472656 785.457031 699.707031 L 785.457031 700.242188 C 785.457031 701.4375 785.648438 702.425781 786.023438 703.210938 C 786.402344 703.996094 786.960938 704.578125 787.695312 704.957031 C 788.433594 705.332031 789.316406 705.523438 790.351562 705.523438 C 791.183594 705.523438 791.921875 705.382812 792.558594 705.105469 C 793.191406 704.824219 793.691406 704.414062 794.046875 703.867188 C 794.40625 703.320312 794.585938 702.660156 794.585938 701.882812 L 797.804688 701.882812 C 797.804688 702.878906 797.628906 703.769531 797.269531 704.554688 C 796.910156 705.339844 796.398438 706 795.734375 706.535156 C 795.066406 707.074219 794.273438 707.480469 793.347656 707.757812 C 792.421875 708.035156 791.394531 708.175781 790.261719 708.175781 "/>
<path fill-rule="nonzero" fill="#068CEF" fill-opacity="1" d="M 812.867188 708.175781 C 811.035156 708.175781 809.617188 707.726562 808.601562 706.835938 C 807.589844 705.941406 807.078125 704.46875 807.078125 702.421875 L 807.078125 692.132812 L 810.359375 692.132812 L 810.359375 701.855469 C 810.359375 702.550781 810.449219 703.121094 810.628906 703.566406 C 810.808594 704.015625 811.058594 704.371094 811.375 704.628906 C 811.691406 704.886719 812.078125 705.070312 812.539062 705.179688 C 812.996094 705.289062 813.492188 705.34375 814.027344 705.34375 C 814.84375 705.34375 815.601562 705.160156 816.296875 704.789062 C 816.992188 704.425781 817.558594 703.910156 817.996094 703.253906 C 818.433594 702.601562 818.652344 701.835938 818.652344 700.957031 L 818.652344 692.132812 L 821.960938 692.132812 L 821.960938 707.816406 L 819.308594 707.816406 L 819.039062 705.34375 L 818.800781 705.34375 C 818.324219 706.019531 817.765625 706.566406 817.132812 706.984375 C 816.496094 707.402344 815.820312 707.703125 815.101562 707.894531 C 814.386719 708.082031 813.640625 708.175781 812.867188 708.175781 "/>
<path fill-rule="nonzero" fill="#068CEF" fill-opacity="1" d="M 832.101562 707.816406 L 832.101562 692.132812 L 834.785156 692.132812 L 835.054688 694.816406 L 835.265625 694.816406 C 835.441406 694.316406 835.699219 693.835938 836.039062 693.367188 C 836.378906 692.902344 836.820312 692.519531 837.367188 692.21875 C 837.914062 691.921875 838.5625 691.773438 839.320312 691.773438 C 839.65625 691.773438 839.976562 691.796875 840.273438 691.847656 C 840.574219 691.898438 840.820312 691.953125 841.019531 692.011719 L 841.019531 694.992188 L 839.585938 694.992188 C 838.832031 694.992188 838.191406 695.117188 837.664062 695.367188 C 837.136719 695.617188 836.703125 695.964844 836.367188 696.410156 C 836.027344 696.859375 835.785156 697.367188 835.636719 697.945312 C 835.488281 698.523438 835.410156 699.128906 835.410156 699.765625 L 835.410156 707.816406 Z M 832.101562 707.816406 "/>
<path fill-rule="nonzero" fill="#068CEF" fill-opacity="1" d="M 851.875 698.484375 L 861.328125 698.484375 C 861.328125 697.730469 861.210938 697.09375 860.972656 696.574219 C 860.730469 696.058594 860.402344 695.636719 859.988281 695.308594 C 859.570312 694.980469 859.085938 694.746094 858.539062 694.605469 C 857.992188 694.46875 857.402344 694.398438 856.765625 694.398438 C 855.8125 694.398438 854.980469 694.542969 854.277344 694.828125 C 853.570312 695.117188 853.015625 695.566406 852.617188 696.171875 C 852.222656 696.777344 851.972656 697.550781 851.875 698.484375 M 856.824219 708.175781 C 855.035156 708.175781 853.515625 707.882812 852.261719 707.296875 C 851.011719 706.710938 850.054688 705.808594 849.398438 704.597656 C 848.742188 703.386719 848.414062 701.84375 848.414062 699.972656 C 848.414062 698.125 848.738281 696.59375 849.382812 695.382812 C 850.03125 694.167969 850.980469 693.265625 852.234375 692.667969 C 853.484375 692.070312 855.007812 691.773438 856.796875 691.773438 C 858.566406 691.773438 860.039062 692.066406 861.226562 692.652344 C 862.40625 693.238281 863.296875 694.109375 863.894531 695.261719 C 864.488281 696.414062 864.789062 697.828125 864.789062 699.496094 L 864.789062 700.808594 L 851.875 700.808594 C 851.894531 701.921875 852.109375 702.835938 852.515625 703.539062 C 852.921875 704.246094 853.492188 704.757812 854.230469 705.074219 C 854.964844 705.394531 855.859375 705.550781 856.914062 705.550781 C 857.492188 705.550781 858.046875 705.476562 858.585938 705.328125 C 859.121094 705.179688 859.59375 704.96875 860.003906 704.703125 C 860.40625 704.433594 860.738281 704.105469 860.984375 703.71875 C 861.234375 703.328125 861.378906 702.898438 861.417969 702.421875 L 864.699219 702.421875 C 864.679688 703.253906 864.492188 704.019531 864.148438 704.714844 C 863.800781 705.414062 863.289062 706.019531 862.625 706.535156 C 861.960938 707.054688 861.140625 707.453125 860.164062 707.742188 C 859.191406 708.03125 858.078125 708.175781 856.824219 708.175781 "/>
<path fill-rule="nonzero" fill="#068CEF" fill-opacity="1" d="M 874.570312 704.03125 L 878.359375 704.03125 L 878.359375 707.816406 L 874.570312 707.816406 Z M 874.570312 704.03125 "/>
<path fill-rule="nonzero" fill="#068CEF" fill-opacity="1" d="M 913.816406 708.175781 C 910.140625 708.175781 907.351562 707.3125 905.453125 705.582031 C 903.554688 703.851562 902.605469 701.1875 902.605469 697.589844 C 902.605469 695.242188 903.066406 693.285156 903.988281 691.714844 C 904.914062 690.144531 906.257812 688.964844 908.015625 688.179688 C 909.777344 687.394531 911.898438 687 914.386719 687 C 915.976562 687 917.425781 687.152344 918.738281 687.449219 C 920.050781 687.746094 921.183594 688.203125 922.140625 688.820312 C 923.09375 689.4375 923.828125 690.207031 924.347656 691.132812 C 924.863281 692.058594 925.121094 693.15625 925.121094 694.429688 L 921.542969 694.429688 C 921.542969 693.613281 921.351562 692.925781 920.976562 692.371094 C 920.597656 691.8125 920.082031 691.359375 919.425781 691.011719 C 918.769531 690.664062 918.019531 690.410156 917.171875 690.253906 C 916.328125 690.09375 915.4375 690.011719 914.503906 690.011719 C 913.269531 690.011719 912.152344 690.152344 911.148438 690.429688 C 910.144531 690.710938 909.28125 691.140625 908.554688 691.726562 C 907.828125 692.316406 907.265625 693.066406 906.867188 693.980469 C 906.472656 694.894531 906.273438 695.976562 906.273438 697.230469 L 906.273438 697.917969 C 906.273438 699.628906 906.585938 701.015625 907.210938 702.078125 C 907.839844 703.140625 908.730469 703.914062 909.898438 704.402344 C 911.058594 704.890625 912.4375 705.136719 914.027344 705.136719 C 915.757812 705.136719 917.179688 704.933594 918.289062 704.535156 C 919.402344 704.140625 920.234375 703.558594 920.78125 702.792969 C 921.328125 702.027344 921.601562 701.097656 921.601562 700.003906 L 921.601562 699.707031 L 913.757812 699.707031 L 913.757812 696.78125 L 925.152344 696.78125 L 925.152344 707.816406 L 922.703125 707.816406 L 922.316406 705.164062 C 921.683594 705.878906 920.925781 706.457031 920.050781 706.894531 C 919.175781 707.332031 918.214844 707.65625 917.171875 707.863281 C 916.128906 708.070312 915.011719 708.175781 913.816406 708.175781 "/>
<path fill-rule="nonzero" fill="#068CEF" fill-opacity="1" d="M 935.707031 707.816406 L 935.707031 692.132812 L 938.390625 692.132812 L 938.660156 694.816406 L 938.871094 694.816406 C 939.050781 694.316406 939.304688 693.835938 939.644531 693.367188 C 939.984375 692.902344 940.425781 692.519531 940.972656 692.21875 C 941.519531 691.921875 942.171875 691.773438 942.925781 691.773438 C 943.265625 691.773438 943.582031 691.796875 943.878906 691.847656 C 944.179688 691.898438 944.425781 691.953125 944.625 692.011719 L 944.625 694.992188 L 943.191406 694.992188 C 942.4375 694.992188 941.796875 695.117188 941.269531 695.367188 C 940.742188 695.617188 940.3125 695.964844 939.972656 696.410156 C 939.636719 696.859375 939.390625 697.367188 939.242188 697.945312 C 939.09375 698.523438 939.019531 699.128906 939.019531 699.765625 L 939.019531 707.816406 Z M 935.707031 707.816406 "/>
<path fill-rule="nonzero" fill="#068CEF" fill-opacity="1" d="M 960.433594 705.523438 C 961.507812 705.523438 962.414062 705.328125 963.160156 704.941406 C 963.90625 704.554688 964.472656 703.972656 964.859375 703.195312 C 965.25 702.421875 965.441406 701.4375 965.441406 700.242188 L 965.441406 699.675781 C 965.441406 698.484375 965.25 697.5 964.859375 696.722656 C 964.472656 695.949219 963.90625 695.371094 963.160156 694.992188 C 962.414062 694.617188 961.507812 694.429688 960.433594 694.429688 C 959.378906 694.429688 958.480469 694.617188 957.734375 694.992188 C 956.988281 695.371094 956.421875 695.949219 956.035156 696.722656 C 955.644531 697.5 955.453125 698.484375 955.453125 699.675781 L 955.453125 700.242188 C 955.453125 701.4375 955.644531 702.421875 956.035156 703.195312 C 956.421875 703.972656 956.988281 704.554688 957.734375 704.941406 C 958.480469 705.328125 959.378906 705.523438 960.433594 705.523438 M 960.433594 708.175781 C 958.644531 708.175781 957.121094 707.871094 955.867188 707.265625 C 954.617188 706.660156 953.660156 705.75 953.007812 704.539062 C 952.347656 703.324219 952.023438 701.804688 952.023438 699.976562 C 952.023438 698.105469 952.347656 696.570312 953.007812 695.367188 C 953.660156 694.164062 954.617188 693.265625 955.867188 692.667969 C 957.121094 692.070312 958.644531 691.773438 960.433594 691.773438 C 962.261719 691.773438 963.796875 692.070312 965.039062 692.667969 C 966.28125 693.265625 967.226562 694.164062 967.871094 695.367188 C 968.519531 696.570312 968.84375 698.105469 968.84375 699.976562 C 968.84375 701.804688 968.519531 703.324219 967.871094 704.539062 C 967.226562 705.75 966.28125 706.660156 965.039062 707.265625 C 963.796875 707.871094 962.261719 708.175781 960.433594 708.175781 "/>
<path fill-rule="nonzero" fill="#068CEF" fill-opacity="1" d="M 981.785156 707.816406 L 976.386719 692.132812 L 979.847656 692.132812 L 982.441406 700.453125 C 982.601562 700.929688 982.746094 701.394531 982.875 701.851562 C 983.003906 702.3125 983.113281 702.71875 983.203125 703.074219 C 983.289062 703.433594 983.355469 703.703125 983.398438 703.882812 L 983.605469 703.882812 C 983.664062 703.582031 983.75 703.226562 983.859375 702.808594 C 983.96875 702.390625 984.082031 701.972656 984.203125 701.554688 C 984.320312 701.136719 984.421875 700.769531 984.5 700.453125 L 986.914062 692.132812 L 990.492188 692.132812 L 992.941406 700.453125 C 993.039062 700.75 993.144531 701.109375 993.253906 701.523438 C 993.363281 701.941406 993.472656 702.359375 993.582031 702.777344 C 993.691406 703.195312 993.773438 703.5625 993.835938 703.882812 L 994.042969 703.882812 C 994.121094 703.5625 994.21875 703.199219 994.324219 702.792969 C 994.4375 702.386719 994.550781 701.976562 994.671875 701.570312 C 994.789062 701.164062 994.886719 700.800781 994.96875 700.480469 L 997.5625 692.132812 L 1000.78125 692.132812 L 995.386719 707.816406 L 992.074219 707.816406 L 989.777344 699.972656 C 989.660156 699.558594 989.53125 699.109375 989.390625 698.632812 C 989.253906 698.15625 989.121094 697.683594 989.003906 697.214844 C 988.882812 696.746094 988.785156 696.355469 988.707031 696.035156 L 988.496094 696.035156 C 988.4375 696.316406 988.351562 696.667969 988.242188 697.097656 C 988.132812 697.523438 988.007812 697.984375 987.871094 698.484375 C 987.730469 698.980469 987.589844 699.488281 987.453125 700.003906 L 985.128906 707.816406 Z M 981.785156 707.816406 "/>
<path fill-rule="nonzero" fill="#068CEF" fill-opacity="1" d="M 1005.53125 704.03125 L 1009.316406 704.03125 L 1009.316406 707.816406 L 1005.53125 707.816406 Z M 1005.53125 704.03125 "/>
<path fill-rule="nonzero" fill="#068CEF" fill-opacity="1" d="M 1037.96875 697.289062 L 1046.171875 697.289062 C 1047.285156 697.289062 1048.148438 696.984375 1048.765625 696.367188 C 1049.382812 695.75 1049.691406 694.90625 1049.691406 693.832031 C 1049.691406 693.117188 1049.558594 692.503906 1049.289062 691.996094 C 1049.019531 691.488281 1048.628906 691.097656 1048.109375 690.820312 C 1047.59375 690.539062 1046.945312 690.402344 1046.171875 690.402344 L 1037.96875 690.402344 Z M 1034.390625 707.820312 L 1034.390625 687.359375 L 1046.859375 687.359375 C 1048.25 687.359375 1049.421875 687.632812 1050.378906 688.179688 C 1051.332031 688.726562 1052.0625 689.484375 1052.570312 690.445312 C 1053.074219 691.410156 1053.328125 692.53125 1053.328125 693.800781 C 1053.328125 695.074219 1053.066406 696.207031 1052.539062 697.199219 C 1052.011719 698.195312 1051.261719 698.96875 1050.285156 699.511719 C 1049.3125 700.0625 1048.140625 700.335938 1046.769531 700.335938 L 1037.96875 700.335938 L 1037.96875 707.820312 Z M 1034.390625 707.820312 "/>
<path fill-rule="nonzero" fill="#068CEF" fill-opacity="1" d="M 1062.308594 707.816406 L 1062.308594 692.132812 L 1064.992188 692.132812 L 1065.261719 694.816406 L 1065.472656 694.816406 C 1065.652344 694.316406 1065.910156 693.835938 1066.246094 693.367188 C 1066.585938 692.902344 1067.027344 692.519531 1067.574219 692.21875 C 1068.121094 691.921875 1068.773438 691.773438 1069.527344 691.773438 C 1069.867188 691.773438 1070.183594 691.796875 1070.480469 691.847656 C 1070.78125 691.898438 1071.027344 691.953125 1071.226562 692.011719 L 1071.226562 694.992188 L 1069.796875 694.992188 C 1069.039062 694.992188 1068.398438 695.117188 1067.871094 695.367188 C 1067.347656 695.617188 1066.914062 695.964844 1066.574219 696.410156 C 1066.238281 696.859375 1065.992188 697.367188 1065.84375 697.945312 C 1065.695312 698.523438 1065.621094 699.128906 1065.621094 699.765625 L 1065.621094 707.816406 Z M 1062.308594 707.816406 "/>
<path fill-rule="nonzero" fill="#068CEF" fill-opacity="1" d="M 1087.03125 705.523438 C 1088.105469 705.523438 1089.015625 705.328125 1089.757812 704.941406 C 1090.503906 704.554688 1091.070312 703.972656 1091.460938 703.195312 C 1091.847656 702.421875 1092.039062 701.4375 1092.039062 700.242188 L 1092.039062 699.675781 C 1092.039062 698.484375 1091.847656 697.5 1091.460938 696.722656 C 1091.070312 695.949219 1090.503906 695.371094 1089.757812 694.992188 C 1089.015625 694.617188 1088.105469 694.429688 1087.03125 694.429688 C 1085.976562 694.429688 1085.078125 694.617188 1084.332031 694.992188 C 1083.585938 695.371094 1083.019531 695.949219 1082.632812 696.722656 C 1082.242188 697.5 1082.050781 698.484375 1082.050781 699.675781 L 1082.050781 700.242188 C 1082.050781 701.4375 1082.242188 702.421875 1082.632812 703.195312 C 1083.019531 703.972656 1083.585938 704.554688 1084.332031 704.941406 C 1085.078125 705.328125 1085.976562 705.523438 1087.03125 705.523438 M 1087.03125 708.175781 C 1085.242188 708.175781 1083.71875 707.871094 1082.46875 707.265625 C 1081.214844 706.660156 1080.261719 705.75 1079.605469 704.539062 C 1078.945312 703.324219 1078.621094 701.804688 1078.621094 699.976562 C 1078.621094 698.105469 1078.945312 696.570312 1079.605469 695.367188 C 1080.261719 694.164062 1081.214844 693.265625 1082.46875 692.667969 C 1083.71875 692.070312 1085.242188 691.773438 1087.03125 691.773438 C 1088.859375 691.773438 1090.394531 692.070312 1091.636719 692.667969 C 1092.882812 693.265625 1093.824219 694.164062 1094.472656 695.367188 C 1095.117188 696.570312 1095.441406 698.105469 1095.441406 699.976562 C 1095.441406 701.804688 1095.117188 703.324219 1094.472656 704.539062 C 1093.824219 705.75 1092.882812 706.660156 1091.636719 707.265625 C 1090.394531 707.871094 1088.859375 708.175781 1087.03125 708.175781 "/>
<path fill-rule="nonzero" fill="#068CEF" fill-opacity="1" d="M 1111.488281 708.175781 C 1110.355469 708.175781 1109.328125 708.070312 1108.402344 707.863281 C 1107.480469 707.65625 1106.6875 707.347656 1106.03125 706.9375 C 1105.375 706.53125 1104.871094 706.035156 1104.511719 705.449219 C 1104.152344 704.863281 1103.972656 704.179688 1103.972656 703.40625 C 1103.972656 703.304688 1103.980469 703.214844 1103.988281 703.136719 L 1104.003906 702.898438 L 1107.316406 702.898438 L 1107.316406 703.226562 C 1107.316406 703.84375 1107.511719 704.324219 1107.910156 704.671875 C 1108.308594 705.019531 1108.835938 705.269531 1109.492188 705.417969 C 1110.148438 705.566406 1110.84375 705.640625 1111.578125 705.640625 C 1112.296875 705.640625 1112.964844 705.578125 1113.59375 705.449219 C 1114.21875 705.316406 1114.726562 705.105469 1115.113281 704.804688 C 1115.5 704.507812 1115.695312 704.101562 1115.695312 703.585938 C 1115.695312 702.984375 1115.476562 702.539062 1115.039062 702.242188 C 1114.601562 701.941406 1113.992188 701.710938 1113.203125 701.539062 C 1112.417969 701.371094 1111.53125 701.1875 1110.535156 700.988281 C 1109.71875 700.828125 1108.949219 700.640625 1108.222656 700.421875 C 1107.496094 700.203125 1106.851562 699.929688 1106.285156 699.601562 C 1105.71875 699.273438 1105.277344 698.84375 1104.960938 698.304688 C 1104.640625 697.765625 1104.480469 697.113281 1104.480469 696.335938 C 1104.480469 695.582031 1104.652344 694.921875 1104.988281 694.351562 C 1105.324219 693.785156 1105.804688 693.3125 1106.421875 692.9375 C 1107.035156 692.558594 1107.792969 692.269531 1108.6875 692.070312 C 1109.582031 691.875 1110.585938 691.773438 1111.699219 691.773438 C 1112.773438 691.773438 1113.730469 691.878906 1114.578125 692.085938 C 1115.421875 692.296875 1116.140625 692.589844 1116.738281 692.964844 C 1117.335938 693.34375 1117.792969 693.800781 1118.109375 694.339844 C 1118.429688 694.875 1118.589844 695.460938 1118.589844 696.097656 L 1118.589844 696.398438 C 1118.589844 696.496094 1118.578125 696.574219 1118.558594 696.636719 L 1115.277344 696.636719 L 1115.277344 696.425781 C 1115.277344 695.96875 1115.121094 695.582031 1114.816406 695.261719 C 1114.507812 694.945312 1114.085938 694.707031 1113.546875 694.546875 C 1113.011719 694.386719 1112.375 694.308594 1111.640625 694.308594 C 1111.203125 694.308594 1110.753906 694.339844 1110.296875 694.398438 C 1109.839844 694.457031 1109.425781 694.558594 1109.058594 694.695312 C 1108.691406 694.835938 1108.394531 695.015625 1108.164062 695.230469 C 1107.9375 695.449219 1107.820312 695.730469 1107.820312 696.066406 C 1107.820312 696.546875 1108.027344 696.914062 1108.433594 697.171875 C 1108.839844 697.429688 1109.378906 697.632812 1110.042969 697.78125 C 1110.710938 697.933594 1111.441406 698.085938 1112.234375 698.246094 C 1113.070312 698.425781 1113.894531 698.605469 1114.710938 698.796875 C 1115.527344 698.984375 1116.257812 699.242188 1116.902344 699.570312 C 1117.550781 699.902344 1118.066406 700.347656 1118.453125 700.914062 C 1118.84375 701.480469 1119.035156 702.230469 1119.035156 703.164062 C 1119.035156 704.0625 1118.863281 704.832031 1118.515625 705.476562 C 1118.164062 706.121094 1117.65625 706.644531 1116.992188 707.042969 C 1116.324219 707.441406 1115.53125 707.726562 1114.605469 707.90625 C 1113.683594 708.085938 1112.644531 708.175781 1111.488281 708.175781 "/>
<path fill-rule="nonzero" fill="#068CEF" fill-opacity="1" d="M 1136.179688 705.371094 C 1137.175781 705.371094 1138.003906 705.183594 1138.671875 704.804688 C 1139.335938 704.429688 1139.84375 703.863281 1140.191406 703.105469 C 1140.539062 702.351562 1140.714844 701.394531 1140.714844 700.242188 L 1140.714844 699.734375 C 1140.714844 698.542969 1140.539062 697.5625 1140.191406 696.796875 C 1139.84375 696.03125 1139.332031 695.472656 1138.65625 695.113281 C 1137.980469 694.753906 1137.152344 694.574219 1136.179688 694.574219 C 1135.207031 694.574219 1134.378906 694.769531 1133.691406 695.160156 C 1133.003906 695.546875 1132.480469 696.128906 1132.125 696.902344 C 1131.765625 697.679688 1131.589844 698.644531 1131.589844 699.796875 L 1131.589844 700.152344 C 1131.589844 701.046875 1131.695312 701.824219 1131.914062 702.480469 C 1132.132812 703.136719 1132.445312 703.679688 1132.855469 704.105469 C 1133.261719 704.53125 1133.746094 704.851562 1134.300781 705.058594 C 1134.859375 705.269531 1135.484375 705.371094 1136.179688 705.371094 M 1128.308594 713.128906 L 1128.308594 692.132812 L 1130.988281 692.132812 L 1131.289062 694.457031 L 1131.496094 694.457031 C 1132.113281 693.523438 1132.894531 692.84375 1133.839844 692.414062 C 1134.78125 691.988281 1135.84375 691.773438 1137.015625 691.773438 C 1138.488281 691.773438 1139.75 692.066406 1140.804688 692.652344 C 1141.855469 693.238281 1142.671875 694.140625 1143.246094 695.351562 C 1143.824219 696.566406 1144.113281 698.113281 1144.113281 700.003906 C 1144.113281 701.835938 1143.824219 703.359375 1143.246094 704.582031 C 1142.671875 705.804688 1141.871094 706.710938 1140.847656 707.296875 C 1139.824219 707.882812 1138.613281 708.175781 1137.222656 708.175781 C 1136.449219 708.175781 1135.722656 708.089844 1135.046875 707.921875 C 1134.371094 707.753906 1133.761719 707.488281 1133.210938 707.132812 C 1132.664062 706.773438 1132.191406 706.339844 1131.796875 705.820312 L 1131.617188 705.820312 L 1131.617188 713.128906 Z M 1128.308594 713.128906 "/>
<path fill-rule="nonzero" fill="#068CEF" fill-opacity="1" d="M 1156.28125 698.484375 L 1165.734375 698.484375 C 1165.734375 697.730469 1165.613281 697.09375 1165.375 696.574219 C 1165.136719 696.058594 1164.808594 695.636719 1164.390625 695.308594 C 1163.972656 694.980469 1163.492188 694.746094 1162.945312 694.605469 C 1162.398438 694.46875 1161.808594 694.398438 1161.171875 694.398438 C 1160.21875 694.398438 1159.386719 694.542969 1158.679688 694.828125 C 1157.972656 695.117188 1157.421875 695.566406 1157.023438 696.171875 C 1156.628906 696.777344 1156.378906 697.550781 1156.28125 698.484375 M 1161.230469 708.175781 C 1159.441406 708.175781 1157.921875 707.882812 1156.667969 707.296875 C 1155.414062 706.710938 1154.460938 705.808594 1153.804688 704.597656 C 1153.148438 703.386719 1152.820312 701.84375 1152.820312 699.972656 C 1152.820312 698.125 1153.144531 696.59375 1153.789062 695.382812 C 1154.433594 694.167969 1155.386719 693.265625 1156.636719 692.667969 C 1157.890625 692.070312 1159.410156 691.773438 1161.199219 691.773438 C 1162.96875 691.773438 1164.445312 692.066406 1165.628906 692.652344 C 1166.8125 693.238281 1167.703125 694.109375 1168.296875 695.261719 C 1168.894531 696.414062 1169.191406 697.828125 1169.191406 699.496094 L 1169.191406 700.808594 L 1156.28125 700.808594 C 1156.300781 701.921875 1156.511719 702.835938 1156.921875 703.539062 C 1157.328125 704.246094 1157.898438 704.757812 1158.636719 705.074219 C 1159.371094 705.394531 1160.265625 705.550781 1161.320312 705.550781 C 1161.898438 705.550781 1162.453125 705.476562 1162.988281 705.328125 C 1163.527344 705.179688 1163.996094 704.96875 1164.40625 704.703125 C 1164.8125 704.433594 1165.140625 704.105469 1165.390625 703.71875 C 1165.640625 703.328125 1165.78125 702.898438 1165.820312 702.421875 L 1169.101562 702.421875 C 1169.085938 703.253906 1168.898438 704.019531 1168.550781 704.714844 C 1168.203125 705.414062 1167.695312 706.019531 1167.03125 706.535156 C 1166.363281 707.054688 1165.542969 707.453125 1164.570312 707.742188 C 1163.597656 708.03125 1162.484375 708.175781 1161.230469 708.175781 "/>
<path fill-rule="nonzero" fill="#068CEF" fill-opacity="1" d="M 1178.621094 707.816406 L 1178.621094 692.132812 L 1181.304688 692.132812 L 1181.574219 694.816406 L 1181.78125 694.816406 C 1181.960938 694.316406 1182.21875 693.835938 1182.558594 693.367188 C 1182.894531 692.902344 1183.335938 692.519531 1183.886719 692.21875 C 1184.429688 691.921875 1185.082031 691.773438 1185.839844 691.773438 C 1186.175781 691.773438 1186.492188 691.796875 1186.789062 691.847656 C 1187.089844 691.898438 1187.339844 691.953125 1187.535156 692.011719 L 1187.535156 694.992188 L 1186.105469 694.992188 C 1185.351562 694.992188 1184.710938 695.117188 1184.183594 695.367188 C 1183.65625 695.617188 1183.222656 695.964844 1182.886719 696.410156 C 1182.546875 696.859375 1182.304688 697.367188 1182.15625 697.945312 C 1182.003906 698.523438 1181.929688 699.128906 1181.929688 699.765625 L 1181.929688 707.816406 Z M 1178.621094 707.816406 "/>
</svg>